<svg width="99" height="100" viewBox="0 0 99 100" fill="none" xmlns="http://www.w3.org/2000/svg">
<g clip-path="url(#clip0_135_5020)">
<rect width="98.6667" height="100" fill="white"/>
<path d="M43.0909 96H10.0909V2.90909H43.3636C52.7273 2.90909 60.7879 4.77273 67.5455 8.5C74.303 12.197 79.5 17.5151 83.1364 24.4545C86.803 31.3939 88.6364 39.697 88.6364 49.3636C88.6364 59.0606 86.803 67.3939 83.1364 74.3636C79.5 81.3333 74.2727 86.6818 67.4545 90.4091C60.6667 94.1364 52.5455 96 43.0909 96ZM29.7727 79.1364H42.2727C48.0909 79.1364 52.9848 78.1061 56.9545 76.0455C60.9545 73.9545 63.9545 70.7273 65.9545 66.3636C67.9848 61.9697 69 56.303 69 49.3636C69 42.4848 67.9848 36.8636 65.9545 32.5C63.9545 28.1364 60.9697 24.9242 57 22.8636C53.0303 20.803 48.1364 19.7727 42.3182 19.7727H29.7727V79.1364Z" fill="#18A058"/>
<mask id="path-2-outside-1_135_5020" maskUnits="userSpaceOnUse" x="5.09094" y="-2.09094" width="81" height="74" fill="black">
<rect fill="white" x="5.09094" y="-2.09094" width="81" height="74"/>
<path fill-rule="evenodd" clip-rule="evenodd" d="M10.0909 66H29.7728V65.8181H46.3182C53.4697 65.8181 59.5606 64.5 64.5909 61.8636C69.6516 59.2272 73.5152 55.5454 76.1819 50.8181C78.8485 46.0909 80.1819 40.6363 80.1819 34.4545C80.1819 28.2727 78.8637 22.8181 76.2273 18.0909C73.6212 13.3333 69.8334 9.62118 64.8637 6.95451C59.894 4.25754 53.8788 2.90906 46.8182 2.90906H10.0909V66ZM29.7728 50.0454H43.1364C46.9243 50.0454 50.0455 49.3939 52.5 48.0909C54.9849 46.7575 56.8334 44.9242 58.0455 42.5909C59.2879 40.2272 59.9091 37.5151 59.9091 34.4545C59.9091 31.3636 59.2879 28.6666 58.0455 26.3636C56.8334 24.0303 54.9849 22.2272 52.5 20.9545C50.0152 19.6515 46.8637 19 43.0455 19H29.7728V50.0454Z"/>
</mask>
<path fill-rule="evenodd" clip-rule="evenodd" d="M10.0909 66H29.7728V65.8181H46.3182C53.4697 65.8181 59.5606 64.5 64.5909 61.8636C69.6516 59.2272 73.5152 55.5454 76.1819 50.8181C78.8485 46.0909 80.1819 40.6363 80.1819 34.4545C80.1819 28.2727 78.8637 22.8181 76.2273 18.0909C73.6212 13.3333 69.8334 9.62118 64.8637 6.95451C59.894 4.25754 53.8788 2.90906 46.8182 2.90906H10.0909V66ZM29.7728 50.0454H43.1364C46.9243 50.0454 50.0455 49.3939 52.5 48.0909C54.9849 46.7575 56.8334 44.9242 58.0455 42.5909C59.2879 40.2272 59.9091 37.5151 59.9091 34.4545C59.9091 31.3636 59.2879 28.6666 58.0455 26.3636C56.8334 24.0303 54.9849 22.2272 52.5 20.9545C50.0152 19.6515 46.8637 19 43.0455 19H29.7728V50.0454Z" fill="black"/>
<path d="M10.0909 66H5.09094V71H10.0909V66ZM29.7728 66V71H34.7728V66H29.7728ZM29.7728 65.8181V60.8181H24.7728V65.8181H29.7728ZM64.5909 61.8636L62.2808 57.4292L62.2699 57.435L64.5909 61.8636ZM76.1819 50.8181L80.5367 53.2748L80.5368 53.2748L76.1819 50.8181ZM76.2273 18.0909L71.8421 20.493L71.8512 20.5096L71.8605 20.5262L76.2273 18.0909ZM64.8637 6.95451L62.4788 11.3491L62.4892 11.3547L62.4996 11.3603L64.8637 6.95451ZM10.0909 2.90906V-2.09094H5.09094V2.90906H10.0909ZM29.7728 50.0454H24.7728V55.0454H29.7728V50.0454ZM52.5 48.0909L54.8445 52.5072L54.8543 52.5019L54.8641 52.4967L52.5 48.0909ZM58.0455 42.5909L53.6197 40.2645L53.614 40.2752L53.6085 40.2859L58.0455 42.5909ZM58.0455 26.3636L53.6085 28.6685L53.6265 28.7032L53.645 28.7376L58.0455 26.3636ZM52.5 20.9545L50.178 25.3826L50.1993 25.3938L50.2207 25.4047L52.5 20.9545ZM29.7728 19V14H24.7728V19H29.7728ZM10.0909 71H29.7728V61H10.0909V71ZM24.7728 65.8181V66H34.7728V65.8181H24.7728ZM46.3182 60.8181H29.7728V70.8181H46.3182V60.8181ZM62.2699 57.435C58.1176 59.6112 52.8662 60.8181 46.3182 60.8181V70.8181C54.0733 70.8181 61.0037 69.3887 66.912 66.2922L62.2699 57.435ZM71.827 48.3615C69.6611 52.2011 66.5291 55.2161 62.2808 57.4293L66.9011 66.2979C72.774 63.2384 77.3693 58.8898 80.5367 53.2748L71.827 48.3615ZM75.1819 34.4545C75.1819 39.897 74.0148 44.483 71.827 48.3615L80.5368 53.2748C83.6822 47.6987 85.1819 41.3757 85.1819 34.4545H75.1819ZM71.8605 20.5262C74.0257 24.4087 75.1819 29.0025 75.1819 34.4545H85.1819C85.1819 27.5429 83.7016 21.2276 80.5941 15.6555L71.8605 20.5262ZM62.4996 11.3603C66.6515 13.5881 69.7205 16.6199 71.8421 20.493L80.6125 15.6888C77.5219 10.0467 73.0153 5.65421 67.2278 2.54871L62.4996 11.3603ZM46.8182 7.90906C53.2496 7.90906 58.4015 9.13642 62.4788 11.3491L67.2485 2.55993C61.3864 -0.621334 54.5081 -2.09094 46.8182 -2.09094V7.90906ZM10.0909 7.90906H46.8182V-2.09094H10.0909V7.90906ZM15.0909 66V2.90906H5.09094V66H15.0909ZM29.7728 55.0454H43.1364V45.0454H29.7728V55.0454ZM43.1364 55.0454C47.459 55.0454 51.4538 54.3072 54.8445 52.5072L50.1556 43.6746C48.6372 44.4807 46.3896 45.0454 43.1364 45.0454V55.0454ZM54.8641 52.4967C58.168 50.7239 60.7724 48.1878 62.4825 44.8958L53.6085 40.2859C52.8943 41.6606 51.8017 42.7912 50.1359 43.6851L54.8641 52.4967ZM62.4713 44.9173C64.1427 41.7375 64.9091 38.2063 64.9091 34.4545H54.9091C54.9091 36.8239 54.4331 38.717 53.6197 40.2645L62.4713 44.9173ZM64.9091 34.4545C64.9091 30.685 64.1475 27.1437 62.446 23.9897L53.645 28.7376C54.4283 30.1895 54.9091 32.0422 54.9091 34.4545H64.9091ZM62.4825 24.0587C60.7611 20.7449 58.1284 18.2196 54.7794 16.5043L50.2207 25.4047C51.8414 26.2349 52.9056 27.3156 53.6085 28.6685L62.4825 24.0587ZM54.8221 16.5264C51.4096 14.7369 47.3945 14 43.0455 14V24C46.3328 24 48.6208 24.566 50.178 25.3826L54.8221 16.5264ZM43.0455 14H29.7728V24H43.0455V14ZM24.7728 19V50.0454H34.7728V19H24.7728Z" fill="white" mask="url(#path-2-outside-1_135_5020)"/>
<path d="M10.0909 96V2.90909H46.8182C53.8788 2.90909 59.8939 4.25757 64.8636 6.95454C69.8333 9.62121 73.6212 13.3333 76.2273 18.0909C78.8636 22.8182 80.1818 28.2727 80.1818 34.4545C80.1818 40.6364 78.8485 46.0909 76.1818 50.8182C73.5152 55.5455 69.6515 59.2273 64.5909 61.8636C59.5606 64.5 53.4697 65.8182 46.3182 65.8182H22.9091V50.0455H43.1364C46.9242 50.0455 50.0455 49.3939 52.5 48.0909C54.9849 46.7576 56.8333 44.9242 58.0455 42.5909C59.2879 40.2273 59.9091 37.5151 59.9091 34.4545C59.9091 31.3636 59.2879 28.6667 58.0455 26.3636C56.8333 24.0303 54.9849 22.2273 52.5 20.9545C50.0152 19.6515 46.8636 19 43.0455 19H29.7727V96H10.0909Z" fill="black"/>
<path fill-rule="evenodd" clip-rule="evenodd" d="M10.0909 79.1367V96H43.0909C52.5455 96 60.6667 94.1363 67.4546 90.4091C72.6235 87.5834 76.8781 83.8259 80.2184 79.1367H10.0909Z" fill="#18A058"/>
</g>
<defs>
<clipPath id="clip0_135_5020">
<rect width="98.6667" height="100" fill="white"/>
</clipPath>
</defs>
</svg>
